<svg width="59" height="10" viewBox="0 0 59 10" fill="none" xmlns="http://www.w3.org/2000/svg">
<path d="M4.74314 0.282234C4.92886 -0.0940777 5.46547 -0.0940783 5.65119 0.282234L6.86497 2.74162C6.93872 2.89105 7.08128 2.99462 7.24619 3.01859L9.96028 3.41297C10.3756 3.47331 10.5414 3.98366 10.2409 4.27658L8.27695 6.19094C8.15762 6.30725 8.10317 6.47484 8.13133 6.63909L8.59496 9.34221C8.66589 9.75581 8.23177 10.0712 7.86033 9.87595L5.43277 8.59971C5.28527 8.52216 5.10906 8.52216 4.96156 8.59971L2.53401 9.87595C2.16256 10.0712 1.72844 9.75582 1.79938 9.34221L2.263 6.63909C2.29117 6.47484 2.23671 6.30726 2.11739 6.19094L0.153453 4.27658C-0.14705 3.98366 0.0187706 3.47331 0.434056 3.41297L3.14814 3.01859C3.31305 2.99462 3.45561 2.89105 3.52936 2.74162L4.74314 0.282234ZM16.8946 0.282234C17.0803 -0.0940777 17.6169 -0.0940783 17.8026 0.282234L19.0164 2.74162C19.0901 2.89105 19.2327 2.99462 19.3976 3.01859L22.1117 3.41297C22.527 3.47331 22.6928 3.98366 22.3923 4.27658L20.4284 6.19094C20.309 6.30725 20.2546 6.47484 20.2828 6.63909L20.7464 9.34221C20.8173 9.75581 20.3832 10.0712 20.0117 9.87595L17.5842 8.59971C17.4367 8.52216 17.2605 8.52216 17.113 8.59971L14.6854 9.87595C14.314 10.0712 13.8799 9.75582 13.9508 9.34221L14.4144 6.63909C14.4426 6.47484 14.3881 6.30726 14.2688 6.19094L12.3049 4.27658C12.0044 3.98366 12.1702 3.47331 12.5855 3.41297L15.2996 3.01859C15.4645 2.99462 15.607 2.89105 15.6808 2.74162L16.8946 0.282234ZM29.046 0.282234C29.2317 -0.0940777 29.7683 -0.0940783 29.954 0.282234L31.1678 2.74162C31.2416 2.89105 31.3841 2.99462 31.549 3.01859L34.2631 3.41297C34.6784 3.47331 34.8442 3.98366 34.5437 4.27658L32.5798 6.19094C32.4605 6.30725 32.406 6.47484 32.4342 6.63909L32.8978 9.34221C32.9687 9.75581 32.5346 10.0712 32.1632 9.87595L29.7356 8.59971C29.5881 8.52216 29.4119 8.52216 29.2644 8.59971L26.8368 9.87595C26.4654 10.0712 26.0313 9.75582 26.1022 9.34221L26.5658 6.63909C26.594 6.47484 26.5396 6.30726 26.4202 6.19094L24.4563 4.27658C24.1558 3.98366 24.3216 3.47331 24.7369 3.41297L27.451 3.01859C27.6159 2.99462 27.7585 2.89105 27.8322 2.74162L29.046 0.282234ZM41.1974 0.282234C41.3831 -0.0940777 41.9197 -0.0940783 42.1054 0.282234L43.3192 2.74162C43.393 2.89105 43.5355 2.99462 43.7004 3.01859L46.4145 3.41297C46.8298 3.47331 46.9956 3.98366 46.6951 4.27658L44.7312 6.19094C44.6119 6.30725 44.5574 6.47484 44.5856 6.63909L45.0492 9.34221C45.1202 9.75581 44.686 10.0712 44.3146 9.87595L41.887 8.59971C41.7395 8.52216 41.5633 8.52216 41.4158 8.59971L38.9883 9.87595C38.6168 10.0712 38.1827 9.75582 38.2536 9.34221L38.7173 6.63909C38.7454 6.47484 38.691 6.30726 38.5716 6.19094L36.6077 4.27658C36.3072 3.98366 36.473 3.47331 36.8883 3.41297L39.6024 3.01859C39.7673 2.99462 39.9099 2.89105 39.9836 2.74162L41.1974 0.282234ZM53.3488 0.282234C53.5345 -0.0940777 54.0711 -0.0940783 54.2569 0.282234L55.4706 2.74162C55.5444 2.89105 55.687 2.99462 55.8519 3.01859L58.5659 3.41297C58.9812 3.47331 59.1471 3.98366 58.8466 4.27658L56.8826 6.19094C56.7633 6.30725 56.7088 6.47484 56.737 6.63909L57.2006 9.34221C57.2716 9.75581 56.8374 10.0712 56.466 9.87595L54.0384 8.59971C53.8909 8.52216 53.7147 8.52216 53.5672 8.59971L51.1397 9.87595C50.7682 10.0712 50.3341 9.75582 50.4051 9.34221L50.8687 6.63909C50.8968 6.47484 50.8424 6.30726 50.7231 6.19094L48.7591 4.27658C48.4586 3.98366 48.6244 3.47331 49.0397 3.41297L51.7538 3.01859C51.9187 2.99462 52.0613 2.89105 52.135 2.74162L53.3488 0.282234Z" fill="#FFC700"/>
<path d="M4.74314 0.282234C4.92886 -0.0940777 5.46547 -0.0940783 5.65119 0.282234L6.86497 2.74162C6.93872 2.89105 7.08128 2.99462 7.24619 3.01859L9.96028 3.41297C10.3756 3.47331 10.5414 3.98366 10.2409 4.27658L8.27695 6.19094C8.15762 6.30725 8.10317 6.47484 8.13133 6.63909L8.59496 9.34221C8.66589 9.75581 8.23177 10.0712 7.86033 9.87595L5.43277 8.59971C5.28527 8.52216 5.10906 8.52216 4.96156 8.59971L2.53401 9.87595C2.16256 10.0712 1.72844 9.75582 1.79938 9.34221L2.263 6.63909C2.29117 6.47484 2.23671 6.30726 2.11739 6.19094L0.153453 4.27658C-0.14705 3.98366 0.0187706 3.47331 0.434056 3.41297L3.14814 3.01859C3.31305 2.99462 3.45561 2.89105 3.52936 2.74162L4.74314 0.282234ZM16.8946 0.282234C17.0803 -0.0940777 17.6169 -0.0940783 17.8026 0.282234L19.0164 2.74162C19.0901 2.89105 19.2327 2.99462 19.3976 3.01859L22.1117 3.41297C22.527 3.47331 22.6928 3.98366 22.3923 4.27658L20.4284 6.19094C20.309 6.30725 20.2546 6.47484 20.2828 6.63909L20.7464 9.34221C20.8173 9.75581 20.3832 10.0712 20.0117 9.87595L17.5842 8.59971C17.4367 8.52216 17.2605 8.52216 17.113 8.59971L14.6854 9.87595C14.314 10.0712 13.8799 9.75582 13.9508 9.34221L14.4144 6.63909C14.4426 6.47484 14.3881 6.30726 14.2688 6.19094L12.3049 4.27658C12.0044 3.98366 12.1702 3.47331 12.5855 3.41297L15.2996 3.01859C15.4645 2.99462 15.607 2.89105 15.6808 2.74162L16.8946 0.282234ZM29.046 0.282234C29.2317 -0.0940777 29.7683 -0.0940783 29.954 0.282234L31.1678 2.74162C31.2416 2.89105 31.3841 2.99462 31.549 3.01859L34.2631 3.41297C34.6784 3.47331 34.8442 3.98366 34.5437 4.27658L32.5798 6.19094C32.4605 6.30725 32.406 6.47484 32.4342 6.63909L32.8978 9.34221C32.9687 9.75581 32.5346 10.0712 32.1632 9.87595L29.7356 8.59971C29.5881 8.52216 29.4119 8.52216 29.2644 8.59971L26.8368 9.87595C26.4654 10.0712 26.0313 9.75582 26.1022 9.34221L26.5658 6.63909C26.594 6.47484 26.5396 6.30726 26.4202 6.19094L24.4563 4.27658C24.1558 3.98366 24.3216 3.47331 24.7369 3.41297L27.451 3.01859C27.6159 2.99462 27.7585 2.89105 27.8322 2.74162L29.046 0.282234ZM41.1974 0.282234C41.3831 -0.0940777 41.9197 -0.0940783 42.1054 0.282234L43.3192 2.74162C43.393 2.89105 43.5355 2.99462 43.7004 3.01859L46.4145 3.41297C46.8298 3.47331 46.9956 3.98366 46.6951 4.27658L44.7312 6.19094C44.6119 6.30725 44.5574 6.47484 44.5856 6.63909L45.0492 9.34221C45.1202 9.75581 44.686 10.0712 44.3146 9.87595L41.887 8.59971C41.7395 8.52216 41.5633 8.52216 41.4158 8.59971L38.9883 9.87595C38.6168 10.0712 38.1827 9.75582 38.2536 9.34221L38.7173 6.63909C38.7454 6.47484 38.691 6.30726 38.5716 6.19094L36.6077 4.27658C36.3072 3.98366 36.473 3.47331 36.8883 3.41297L39.6024 3.01859C39.7673 2.99462 39.9099 2.89105 39.9836 2.74162L41.1974 0.282234ZM53.3488 0.282234C53.5345 -0.0940777 54.0711 -0.0940783 54.2569 0.282234L55.4706 2.74162C55.5444 2.89105 55.687 2.99462 55.8519 3.01859L58.5659 3.41297C58.9812 3.47331 59.1471 3.98366 58.8466 4.27658L56.8826 6.19094C56.7633 6.30725 56.7088 6.47484 56.737 6.63909L57.2006 9.34221C57.2716 9.75581 56.8374 10.0712 56.466 9.87595L54.0384 8.59971C53.8909 8.52216 53.7147 8.52216 53.5672 8.59971L51.1397 9.87595C50.7682 10.0712 50.3341 9.75582 50.4051 9.34221L50.8687 6.63909C50.8968 6.47484 50.8424 6.30726 50.7231 6.19094L48.7591 4.27658C48.4586 3.98366 48.6244 3.47331 49.0397 3.41297L51.7538 3.01859C51.9187 2.99462 52.0613 2.89105 52.135 2.74162L53.3488 0.282234Z" fill="#FFC700"/>
<path d="M4.74314 0.282234C4.92886 -0.0940777 5.46547 -0.0940783 5.65119 0.282234L6.86497 2.74162C6.93872 2.89105 7.08128 2.99462 7.24619 3.01859L9.96028 3.41297C10.3756 3.47331 10.5414 3.98366 10.2409 4.27658L8.27695 6.19094C8.15762 6.30725 8.10317 6.47484 8.13133 6.63909L8.59496 9.34221C8.66589 9.75581 8.23177 10.0712 7.86033 9.87595L5.43277 8.59971C5.28527 8.52216 5.10906 8.52216 4.96156 8.59971L2.53401 9.87595C2.16256 10.0712 1.72844 9.75582 1.79938 9.34221L2.263 6.63909C2.29117 6.47484 2.23671 6.30726 2.11739 6.19094L0.153453 4.27658C-0.14705 3.98366 0.0187706 3.47331 0.434056 3.41297L3.14814 3.01859C3.31305 2.99462 3.45561 2.89105 3.52936 2.74162L4.74314 0.282234ZM16.8946 0.282234C17.0803 -0.0940777 17.6169 -0.0940783 17.8026 0.282234L19.0164 2.74162C19.0901 2.89105 19.2327 2.99462 19.3976 3.01859L22.1117 3.41297C22.527 3.47331 22.6928 3.98366 22.3923 4.27658L20.4284 6.19094C20.309 6.30725 20.2546 6.47484 20.2828 6.63909L20.7464 9.34221C20.8173 9.75581 20.3832 10.0712 20.0117 9.87595L17.5842 8.59971C17.4367 8.52216 17.2605 8.52216 17.113 8.59971L14.6854 9.87595C14.314 10.0712 13.8799 9.75582 13.9508 9.34221L14.4144 6.63909C14.4426 6.47484 14.3881 6.30726 14.2688 6.19094L12.3049 4.27658C12.0044 3.98366 12.1702 3.47331 12.5855 3.41297L15.2996 3.01859C15.4645 2.99462 15.607 2.89105 15.6808 2.74162L16.8946 0.282234ZM29.046 0.282234C29.2317 -0.0940777 29.7683 -0.0940783 29.954 0.282234L31.1678 2.74162C31.2416 2.89105 31.3841 2.99462 31.549 3.01859L34.2631 3.41297C34.6784 3.47331 34.8442 3.98366 34.5437 4.27658L32.5798 6.19094C32.4605 6.30725 32.406 6.47484 32.4342 6.63909L32.8978 9.34221C32.9687 9.75581 32.5346 10.0712 32.1632 9.87595L29.7356 8.59971C29.5881 8.52216 29.4119 8.52216 29.2644 8.59971L26.8368 9.87595C26.4654 10.0712 26.0313 9.75582 26.1022 9.34221L26.5658 6.63909C26.594 6.47484 26.5396 6.30726 26.4202 6.19094L24.4563 4.27658C24.1558 3.98366 24.3216 3.47331 24.7369 3.41297L27.451 3.01859C27.6159 2.99462 27.7585 2.89105 27.8322 2.74162L29.046 0.282234ZM41.1974 0.282234C41.3831 -0.0940777 41.9197 -0.0940783 42.1054 0.282234L43.3192 2.74162C43.393 2.89105 43.5355 2.99462 43.7004 3.01859L46.4145 3.41297C46.8298 3.47331 46.9956 3.98366 46.6951 4.27658L44.7312 6.19094C44.6119 6.30725 44.5574 6.47484 44.5856 6.63909L45.0492 9.34221C45.1202 9.75581 44.686 10.0712 44.3146 9.87595L41.887 8.59971C41.7395 8.52216 41.5633 8.52216 41.4158 8.59971L38.9883 9.87595C38.6168 10.0712 38.1827 9.75582 38.2536 9.34221L38.7173 6.63909C38.7454 6.47484 38.691 6.30726 38.5716 6.19094L36.6077 4.27658C36.3072 3.98366 36.473 3.47331 36.8883 3.41297L39.6024 3.01859C39.7673 2.99462 39.9099 2.89105 39.9836 2.74162L41.1974 0.282234ZM53.3488 0.282234C53.5345 -0.0940777 54.0711 -0.0940783 54.2569 0.282234L55.4706 2.74162C55.5444 2.89105 55.687 2.99462 55.8519 3.01859L58.5659 3.41297C58.9812 3.47331 59.1471 3.98366 58.8466 4.27658L56.8826 6.19094C56.7633 6.30725 56.7088 6.47484 56.737 6.63909L57.2006 9.34221C57.2716 9.75581 56.8374 10.0712 56.466 9.87595L54.0384 8.59971C53.8909 8.52216 53.7147 8.52216 53.5672 8.59971L51.1397 9.87595C50.7682 10.0712 50.3341 9.75582 50.4051 9.34221L50.8687 6.63909C50.8968 6.47484 50.8424 6.30726 50.7231 6.19094L48.7591 4.27658C48.4586 3.98366 48.6244 3.47331 49.0397 3.41297L51.7538 3.01859C51.9187 2.99462 52.0613 2.89105 52.135 2.74162L53.3488 0.282234Z" fill="#FFC700"/>
<path d="M4.74314 0.282234C4.92886 -0.0940777 5.46547 -0.0940783 5.65119 0.282234L6.86497 2.74162C6.93872 2.89105 7.08128 2.99462 7.24619 3.01859L9.96028 3.41297C10.3756 3.47331 10.5414 3.98366 10.2409 4.27658L8.27695 6.19094C8.15762 6.30725 8.10317 6.47484 8.13133 6.63909L8.59496 9.34221C8.66589 9.75581 8.23177 10.0712 7.86033 9.87595L5.43277 8.59971C5.28527 8.52216 5.10906 8.52216 4.96156 8.59971L2.53401 9.87595C2.16256 10.0712 1.72844 9.75582 1.79938 9.34221L2.263 6.63909C2.29117 6.47484 2.23671 6.30726 2.11739 6.19094L0.153453 4.27658C-0.14705 3.98366 0.0187706 3.47331 0.434056 3.41297L3.14814 3.01859C3.31305 2.99462 3.45561 2.89105 3.52936 2.74162L4.74314 0.282234ZM16.8946 0.282234C17.0803 -0.0940777 17.6169 -0.0940783 17.8026 0.282234L19.0164 2.74162C19.0901 2.89105 19.2327 2.99462 19.3976 3.01859L22.1117 3.41297C22.527 3.47331 22.6928 3.98366 22.3923 4.27658L20.4284 6.19094C20.309 6.30725 20.2546 6.47484 20.2828 6.63909L20.7464 9.34221C20.8173 9.75581 20.3832 10.0712 20.0117 9.87595L17.5842 8.59971C17.4367 8.52216 17.2605 8.52216 17.113 8.59971L14.6854 9.87595C14.314 10.0712 13.8799 9.75582 13.9508 9.34221L14.4144 6.63909C14.4426 6.47484 14.3881 6.30726 14.2688 6.19094L12.3049 4.27658C12.0044 3.98366 12.1702 3.47331 12.5855 3.41297L15.2996 3.01859C15.4645 2.99462 15.607 2.89105 15.6808 2.74162L16.8946 0.282234ZM29.046 0.282234C29.2317 -0.0940777 29.7683 -0.0940783 29.954 0.282234L31.1678 2.74162C31.2416 2.89105 31.3841 2.99462 31.549 3.01859L34.2631 3.41297C34.6784 3.47331 34.8442 3.98366 34.5437 4.27658L32.5798 6.19094C32.4605 6.30725 32.406 6.47484 32.4342 6.63909L32.8978 9.34221C32.9687 9.75581 32.5346 10.0712 32.1632 9.87595L29.7356 8.59971C29.5881 8.52216 29.4119 8.52216 29.2644 8.59971L26.8368 9.87595C26.4654 10.0712 26.0313 9.75582 26.1022 9.34221L26.5658 6.63909C26.594 6.47484 26.5396 6.30726 26.4202 6.19094L24.4563 4.27658C24.1558 3.98366 24.3216 3.47331 24.7369 3.41297L27.451 3.01859C27.6159 2.99462 27.7585 2.89105 27.8322 2.74162L29.046 0.282234ZM41.1974 0.282234C41.3831 -0.0940777 41.9197 -0.0940783 42.1054 0.282234L43.3192 2.74162C43.393 2.89105 43.5355 2.99462 43.7004 3.01859L46.4145 3.41297C46.8298 3.47331 46.9956 3.98366 46.6951 4.27658L44.7312 6.19094C44.6119 6.30725 44.5574 6.47484 44.5856 6.63909L45.0492 9.34221C45.1202 9.75581 44.686 10.0712 44.3146 9.87595L41.887 8.59971C41.7395 8.52216 41.5633 8.52216 41.4158 8.59971L38.9883 9.87595C38.6168 10.0712 38.1827 9.75582 38.2536 9.34221L38.7173 6.63909C38.7454 6.47484 38.691 6.30726 38.5716 6.19094L36.6077 4.27658C36.3072 3.98366 36.473 3.47331 36.8883 3.41297L39.6024 3.01859C39.7673 2.99462 39.9099 2.89105 39.9836 2.74162L41.1974 0.282234ZM53.3488 0.282234C53.5345 -0.0940777 54.0711 -0.0940783 54.2569 0.282234L55.4706 2.74162C55.5444 2.89105 55.687 2.99462 55.8519 3.01859L58.5659 3.41297C58.9812 3.47331 59.1471 3.98366 58.8466 4.27658L56.8826 6.19094C56.7633 6.30725 56.7088 6.47484 56.737 6.63909L57.2006 9.34221C57.2716 9.75581 56.8374 10.0712 56.466 9.87595L54.0384 8.59971C53.8909 8.52216 53.7147 8.52216 53.5672 8.59971L51.1397 9.87595C50.7682 10.0712 50.3341 9.75582 50.4051 9.34221L50.8687 6.63909C50.8968 6.47484 50.8424 6.30726 50.7231 6.19094L48.7591 4.27658C48.4586 3.98366 48.6244 3.47331 49.0397 3.41297L51.7538 3.01859C51.9187 2.99462 52.0613 2.89105 52.135 2.74162L53.3488 0.282234Z" fill="#FFC700"/>
<path d="M4.74314 0.282234C4.92886 -0.0940777 5.46547 -0.0940783 5.65119 0.282234L6.86497 2.74162C6.93872 2.89105 7.08128 2.99462 7.24619 3.01859L9.96028 3.41297C10.3756 3.47331 10.5414 3.98366 10.2409 4.27658L8.27695 6.19094C8.15762 6.30725 8.10317 6.47484 8.13133 6.63909L8.59496 9.34221C8.66589 9.75581 8.23177 10.0712 7.86033 9.87595L5.43277 8.59971C5.28527 8.52216 5.10906 8.52216 4.96156 8.59971L2.53401 9.87595C2.16256 10.0712 1.72844 9.75582 1.79938 9.34221L2.263 6.63909C2.29117 6.47484 2.23671 6.30726 2.11739 6.19094L0.153453 4.27658C-0.14705 3.98366 0.0187706 3.47331 0.434056 3.41297L3.14814 3.01859C3.31305 2.99462 3.45561 2.89105 3.52936 2.74162L4.74314 0.282234ZM16.8946 0.282234C17.0803 -0.0940777 17.6169 -0.0940783 17.8026 0.282234L19.0164 2.74162C19.0901 2.89105 19.2327 2.99462 19.3976 3.01859L22.1117 3.41297C22.527 3.47331 22.6928 3.98366 22.3923 4.27658L20.4284 6.19094C20.309 6.30725 20.2546 6.47484 20.2828 6.63909L20.7464 9.34221C20.8173 9.75581 20.3832 10.0712 20.0117 9.87595L17.5842 8.59971C17.4367 8.52216 17.2605 8.52216 17.113 8.59971L14.6854 9.87595C14.314 10.0712 13.8799 9.75582 13.9508 9.34221L14.4144 6.63909C14.4426 6.47484 14.3881 6.30726 14.2688 6.19094L12.3049 4.27658C12.0044 3.98366 12.1702 3.47331 12.5855 3.41297L15.2996 3.01859C15.4645 2.99462 15.607 2.89105 15.6808 2.74162L16.8946 0.282234ZM29.046 0.282234C29.2317 -0.0940777 29.7683 -0.0940783 29.954 0.282234L31.1678 2.74162C31.2416 2.89105 31.3841 2.99462 31.549 3.01859L34.2631 3.41297C34.6784 3.47331 34.8442 3.98366 34.5437 4.27658L32.5798 6.19094C32.4605 6.30725 32.406 6.47484 32.4342 6.63909L32.8978 9.34221C32.9687 9.75581 32.5346 10.0712 32.1632 9.87595L29.7356 8.59971C29.5881 8.52216 29.4119 8.52216 29.2644 8.59971L26.8368 9.87595C26.4654 10.0712 26.0313 9.75582 26.1022 9.34221L26.5658 6.63909C26.594 6.47484 26.5396 6.30726 26.4202 6.19094L24.4563 4.27658C24.1558 3.98366 24.3216 3.47331 24.7369 3.41297L27.451 3.01859C27.6159 2.99462 27.7585 2.89105 27.8322 2.74162L29.046 0.282234ZM41.1974 0.282234C41.3831 -0.0940777 41.9197 -0.0940783 42.1054 0.282234L43.3192 2.74162C43.393 2.89105 43.5355 2.99462 43.7004 3.01859L46.4145 3.41297C46.8298 3.47331 46.9956 3.98366 46.6951 4.27658L44.7312 6.19094C44.6119 6.30725 44.5574 6.47484 44.5856 6.63909L45.0492 9.34221C45.1202 9.75581 44.686 10.0712 44.3146 9.87595L41.887 8.59971C41.7395 8.52216 41.5633 8.52216 41.4158 8.59971L38.9883 9.87595C38.6168 10.0712 38.1827 9.75582 38.2536 9.34221L38.7173 6.63909C38.7454 6.47484 38.691 6.30726 38.5716 6.19094L36.6077 4.27658C36.3072 3.98366 36.473 3.47331 36.8883 3.41297L39.6024 3.01859C39.7673 2.99462 39.9099 2.89105 39.9836 2.74162L41.1974 0.282234ZM53.3488 0.282234C53.5345 -0.0940777 54.0711 -0.0940783 54.2569 0.282234L55.4706 2.74162C55.5444 2.89105 55.687 2.99462 55.8519 3.01859L58.5659 3.41297C58.9812 3.47331 59.1471 3.98366 58.8466 4.27658L56.8826 6.19094C56.7633 6.30725 56.7088 6.47484 56.737 6.63909L57.2006 9.34221C57.2716 9.75581 56.8374 10.0712 56.466 9.87595L54.0384 8.59971C53.8909 8.52216 53.7147 8.52216 53.5672 8.59971L51.1397 9.87595C50.7682 10.0712 50.3341 9.75582 50.4051 9.34221L50.8687 6.63909C50.8968 6.47484 50.8424 6.30726 50.7231 6.19094L48.7591 4.27658C48.4586 3.98366 48.6244 3.47331 49.0397 3.41297L51.7538 3.01859C51.9187 2.99462 52.0613 2.89105 52.135 2.74162L53.3488 0.282234Z" fill="#FFC700"/>
</svg>
